<svg version="1" xmlns="http://www.w3.org/2000/svg" width="16pt" height="16pt" viewBox="0 0 16.000000 16.000000"><path d="M0 8.29V16h15.42V.58H0v7.71zm11.106 1271.076c.54.162.906.378 1.326.804 1.074 1.074 1.314 2.676.606 4.044-.816 1.566-2.784 2.214-4.386 1.44-.174-.084-.75-.468-1.29-.852-2.004-1.434-3-2.028-3.516-2.094l-.258-.036.378-.24c1.134-.72 4.212-2.412 5.13-2.82.774-.342 1.416-.42 2.01-.246zm1832.946 948.378c.426.162 1.14.594 2.142 1.308 2.184 1.554 2.46 1.71 3.33 1.836l.48.072-.006.93c0 .768-.024.996-.132 1.344-.18.594-.516 1.128-.972 1.542-1.338 1.23-3.306 1.176-4.596-.12-.444-.438-.816-1.14-.918-1.716-.042-.216-.066-1.338-.066-2.838v-2.478h.21c.114 0 .354.054.528.12z"/></svg>