<svg xmlns="http://www.w3.org/2000/svg" viewBox="0 0 2374.3 586.1" enable-background="new 0 0 2374.3 586.1"><style type="text/css">.st0{fill:#5BC2AC;}</style><path class="st0" d="M443.8 318.3c-3.3 0-6.5.6-9.6 1.8-3.3-14.7-16.6-25.6-32-25.6-6.6 0-13 2-18.5 5.7-5.6-10.7-16.8-17.6-29.1-17.6-6.2 0-12.2 1.8-17.4 5l-9.2-91.8c-1.8-19.7-13.1-32-29.5-32-17.5 0-30.2 13.9-30.2 33l5.9 166.4c.2 5 4.3 8.9 9.4 8.7 5-.2 8.9-4.4 8.7-9.4l-5.9-166c0-6.8 3.2-14.6 12.1-14.6 4.3 0 10.1 1.6 11.4 15.6l11.9 118.8c.5 5 4.7 8.5 9.5 8.2 4.8-.2 8.6-4.2 8.6-9.1 0-8.1 6.6-14.7 14.7-14.7s14.7 6.6 14.7 14.7v11.9c0 5 4.1 9.1 9.1 9.1s9.1-4.1 9.1-9.1c0-8.1 6.6-14.7 14.7-14.7s14.7 6.6 14.7 14.7v17.8c0 5 4.1 9.1 9.1 9.1s9.1-4.1 9.1-9.1c0-4.5 4.3-8.7 8.7-8.7 4.3 0 8.7 4.5 8.7 8.7v77.2c0 25.1-5.4 37.8-11.1 51.3-4.1 9.8-8.4 19.9-11.3 34.6H302.6c-15-62.5-62.4-136.1-90-163.7-3.9-3.9-10.2-10.7-14-14.9l.8-.8c5.6-5.6 27-5.6 32.7 0l22.7 22.7c3.5 3.5 9.3 3.5 12.8 0 1.7-1.7 2.7-4 2.7-6.4s-.9-4.7-2.7-6.4L244.9 316c-12.8-12.8-45.5-12.8-58.2-.1l-2.8 2.7-.7.7c-4.9 5.9-5.3 13.2-1 19.2.2.3.4.5.6.8.1.1 10.8 11.9 16.9 18.1 28.3 28.3 75 103.5 86.6 161.7.8 4.2 4.6 7.3 8.9 7.3h142.6c4.5 0 8.3-3.3 9-7.8 2.4-16.8 6.9-27.5 11.3-37.9 6.1-14.5 12.5-29.6 12.5-58.4v-77.2c0-6.8-3-13.6-8.1-18.8-5.1-5-12-8-18.7-8zM0 141.1L117.8 93l-16.1 27.7 193.8 20.4-193.8 20.5 16.1 27.7zM958.5 318.3c-3.3 0-6.5.6-9.6 1.8-3.3-14.7-16.6-25.6-32-25.6-6.6 0-13 2-18.5 5.7-5.6-10.7-16.8-17.6-29.1-17.6-6.2 0-12.2 1.8-17.4 5l-9.2-91.8c-1.8-19.7-13.1-32-29.5-32-17.5 0-30.2 13.9-30.2 33l6 166.6c.2 5 4.3 8.9 9.4 8.7 5-.2 8.9-4.4 8.7-9.4l-5.9-166c0-6.8 3.2-14.6 12.1-14.6 4.3 0 10.1 1.6 11.4 15.6l11.9 118.8c.5 5 4.7 8.5 9.5 8.2 4.8-.2 8.6-4.2 8.6-9.1 0-8.1 6.6-14.7 14.7-14.7s14.7 6.6 14.7 14.7v11.9c0 5 4.1 9.1 9.1 9.1s9.1-4.1 9.1-9.1c0-8.1 6.6-14.7 14.7-14.7s14.7 6.6 14.7 14.7v17.8c0 5 4.1 9.1 9.1 9.1s9.1-4.1 9.1-9.1c0-4.5 4.3-8.7 8.7-8.7 4.3 0 8.7 4.5 8.7 8.7v77.2c0 25.1-5.4 37.8-11.1 51.3-4.1 9.8-8.4 19.9-11.3 34.6H817.3c-15-62.5-62.4-136.1-90-163.7-3.9-3.9-10.2-10.7-14-14.9l.8-.8c5.6-5.6 27-5.6 32.7 0l22.7 22.7c3.5 3.5 9.3 3.5 12.8 0 1.7-1.7 2.7-4 2.7-6.4s-.9-4.7-2.7-6.4l-22.7-22.7c-12.8-12.8-45.5-12.8-58.2-.1l-2.8 2.7-.7.7c-4.9 5.9-5.3 13.2-1 19.2.2.3.4.5.6.8.1.1 10.8 11.9 16.9 18.1 28.3 28.3 75 103.5 86.6 161.7.8 4.2 4.6 7.3 8.9 7.3h142.6c4.5 0 8.3-3.3 9-7.8 2.4-16.8 6.9-27.5 11.3-37.9 6.1-14.5 12.5-29.6 12.5-58.4v-77.2c0-6.8-3-13.6-8.1-18.8s-12-8.2-18.7-8.2zM1105.6 141.1L987.8 93l16.1 27.7-193.7 20.4 193.7 20.5-16.1 27.7zM1572.8 146.3c0 3.3.6 6.5 1.8 9.6-14.7 3.3-25.6 16.6-25.6 32 0 6.6 2 13 5.7 18.5-10.7 5.6-17.6 16.8-17.6 29.1 0 6.2 1.8 12.2 5 17.4l-91.8 9.2c-19.7 1.8-32 13.1-32 29.5 0 17.5 13.9 30.2 33 30.2l166.4-5.9c5-.2 8.9-4.3 8.7-9.4-.2-5-4.4-8.9-9.4-8.7l-166 5.9c-6.8 0-14.6-3.2-14.6-12.1 0-4.3 1.6-10.1 15.6-11.4l118.8-11.9c5-.5 8.5-4.7 8.2-9.5-.2-4.8-4.2-8.6-9.1-8.6-8.1 0-14.7-6.6-14.7-14.7s6.6-14.7 14.7-14.7h11.9c5 0 9.1-4.1 9.1-9.1s-4.1-9.1-9.1-9.1c-8.1 0-14.7-6.6-14.7-14.7s6.6-14.7 14.7-14.7h17.8c5 0 9.1-4.1 9.1-9.1s-4.1-9.1-9.1-9.1c-4.5 0-8.7-4.3-8.7-8.7 0-4.3 4.5-8.7 8.7-8.7h77.2c25.1 0 37.8 5.4 51.3 11.1 9.8 4.1 19.9 8.4 34.6 11.3v127.6c-62.5 15-136.1 62.4-163.7 90-3.9 3.9-10.7 10.2-14.9 14l-.8-.8c-5.6-5.6-5.6-27 0-32.7l22.7-22.7c3.5-3.5 3.5-9.3 0-12.8-1.7-1.7-4-2.7-6.4-2.7s-4.7.9-6.4 2.7l-22.7 22.7c-12.8 12.8-12.8 45.5-.1 58.2l2.7 2.8.7.7c5.9 4.9 13.2 5.3 19.2 1 .3-.2.5-.4.8-.6.1-.1 11.9-10.8 18.1-16.9 28.3-28.3 103.5-75 161.7-86.6 4.2-.8 7.3-4.6 7.3-8.9V152.3c0-4.5-3.3-8.3-7.8-9-16.8-2.4-27.5-6.9-37.9-11.3-14.5-6.1-29.6-12.5-58.4-12.5h-77.2c-6.8 0-13.6 3-18.8 8.1-5 5.1-8 12-8 18.7zM1395.7 0l-48.2 117.8 27.7-16.1 20.2 191.3-20.2 191.3-27.7-16.1 48.2 117.9 48.1-117.9-27.7 16.1-20.2-191.3 20.2-191.3 27.7 16.1zM2366.2 309.5c-5.2-5.2-12-8.1-18.8-8.1-3.3 0-6.5.6-9.6 1.8-3.3-14.7-16.6-25.6-32-25.6-6.6 0-13 2-18.5 5.7-5.6-10.7-16.8-17.6-29.1-17.6-6.2 0-12.2 1.8-17.4 5l-9.2-91.8c-1.8-19.7-13.1-32-29.5-32-17.5 0-30.2 13.9-30.2 33l6.1 166.5c.2 5 4.3 8.9 9.4 8.7 5-.2 8.9-4.4 8.7-9.4l-5.9-166c0-6.8 3.2-14.6 12.1-14.6 4.3 0 10.1 1.6 11.4 15.6l11.9 118.8c.5 5 4.7 8.5 9.5 8.2 4.8-.2 8.6-4.2 8.6-9.1 0-8.1 6.6-14.7 14.7-14.7s14.7 6.6 14.7 14.7v11.9c0 5 4.1 9.1 9.1 9.1s9.1-4.1 9.1-9.1c0-8.1 6.6-14.7 14.7-14.7s14.7 6.6 14.7 14.7v17.8c0 5 4.1 9.1 9.1 9.1s9.1-4.1 9.1-9.1c0-4.5 4.3-8.7 8.7-8.7 4.3 0 8.7 4.5 8.7 8.7v77.2c0 25.1-5.4 37.8-11.1 51.3-4.1 9.8-8.4 19.9-11.3 34.6h-127.6c-15-62.5-62.4-136.1-90-163.7-3.9-3.9-10.2-10.7-14-14.9l.8-.8c5.6-5.6 27-5.6 32.7 0l22.7 22.7c3.5 3.5 9.3 3.5 12.8 0 1.7-1.7 2.7-4 2.7-6.4s-.9-4.7-2.7-6.4l-22.7-22.6c-12.8-12.8-45.5-12.8-58.2-.1l-2.8 2.7-.7.7c-4.9 5.9-5.3 13.2-1 19.2.2.3.4.5.6.8.1.1 10.8 11.9 16.9 18.1 28.3 28.3 75 103.5 86.6 161.7.8 4.2 4.6 7.3 8.9 7.3h142.6c4.5 0 8.3-3.3 9-7.8 2.4-16.8 6.9-27.5 11.3-37.9 6.1-14.5 12.5-29.6 12.5-58.4v-77.3c.1-6.8-2.9-13.6-8.1-18.8zM2142.4 250.5c2.8 2.1 6.1 3.2 9.4 3.2 4.8 0 9.5-2.2 12.6-6.3 5.2-7 3.8-16.8-3.1-22-16.6-12.5-26.1-31.5-26.1-52.2 0-36 29.3-65.3 65.3-65.3s65.3 29.3 65.3 65.3c0 15.4-5.5 30.3-15.4 42.1-5.6 6.6-4.8 16.6 1.9 22.2 6.6 5.6 16.6 4.8 22.2-1.9 14.7-17.4 22.8-39.6 22.8-62.4 0-53.4-43.4-96.8-96.8-96.8-53.4-.1-96.8 43.3-96.8 96.7 0 30.7 14.1 58.9 38.7 77.4z"/></svg>