<svg xmlns="http://www.w3.org/2000/svg" viewBox="0 0 20 20" enable-background="new 0 0 470.7 433.5"><style type="text/css">.st0{fill:#FFFFFF;}</style><path class="st0" d="M17.564 13.862c-.413.916-.612 1.325-1.144 2.135-.742 1.13-1.79 2.538-3.087 2.55-1.152.01-1.448-.75-3.013-.74-1.564.007-1.89.754-3.043.743-1.297-.012-2.29-1.283-3.033-2.414-2.077-3.16-2.294-6.87-1.013-8.843.912-1.4 2.348-2.22 3.698-2.22 1.375 0 2.24.753 3.376.753 1.103 0 1.775-.756 3.365-.756 1.2 0 2.473.655 3.38 1.785-2.972 1.63-2.49 5.873.514 7.007zm-5.1-10.054c.576-.742 1.015-1.788.856-2.858-.944.065-2.047.665-2.692 1.448-.584.71-1.067 1.763-.88 2.787 1.03.03 2.096-.584 2.715-1.377z"/></svg>