<svg xmlns="http://www.w3.org/2000/svg" viewBox="0 0 239.6 123.3" enable-background="new 0 0 239.6 123.3"><style type="text/css">.st0{fill:#FFFFFF;}</style><path class="st0" d="M71.2 73.7v13.9c0 19.6-16 35.6-35.5 35.6-19.6 0-35.6-16-35.6-35.5L0 48c0-1.5-.1-5.8.3-8.8l1.8-.2c6.6-.6 22.3 10.6 35.2 19.7C44.6 63.8 51 68.4 55 70.2c2.6 1.2 5.2 2.1 7.9 2.6 2.7.7 5.5.9 8.3.9zM71.2 70.4c-5 0-10-1-14.8-3.2-10.8-4.9-42.6-32.5-54.6-31.5 10.5-6.4 32.9-19.4 50.6-28.2 11.9-6 20.3-9.8 31.4-5.8 7.2 2.6 13.5 7.7 17.7 14.6.1.2.3.5.4.7 1.9 3.2 3.2 6.7 4 10.3l.1.3.1.4c2.8 14.5-3.6 29.9-17 37.7-5.5 3.1-11.7 4.7-17.9 4.7zM148.5 31.1v8.4c-1.2-.5-2.3-.9-3.3-1.2-1.1-.3-2-.4-3-.4-2.2 0-3.9.7-5.2 2.1-1.3 1.4-1.9 3.3-1.9 5.7v10.5h13.4v8.3h-13.4v38.2h-10.5V64.6h-6.3v-8.3h6.3V44.8c0-5.2 1.2-9 3.5-11.6s5.8-3.8 10.5-3.8c1.5 0 3.1.1 4.6.4 1.7.2 3.4.7 5.3 1.3zM155.3 31.4h10.5v71.4h-10.5zM174 56.3h10.5v46.6H174V56.3zm0-20.1h10.5V47H174V36.2zM203 96.1l.1 27.2h-10.7v-67H203l-.3 8.3c1.6-3.4 3.7-6 6.5-7.7 2.7-1.7 6.1-2.5 10-2.5 5.8 0 10.7 2.4 14.6 7.2 3.9 4.8 5.8 10.8 5.8 18.1 0 7.4-1.9 13.4-5.8 18.1-3.9 4.7-8.8 7.1-14.7 7.1-3.6 0-6.7-.7-9.4-2.2-2.7-1.5-4.9-3.7-6.7-6.6zm12.5-33.4c-3.8 0-6.9 1.6-9.2 4.6-2.3 3.1-3.5 7.3-3.5 12.5 0 5.1 1.2 9.3 3.5 12.4s5.4 4.7 9.1 4.7c3.8 0 6.9-1.6 9.2-4.7 2.4-3.1 3.6-7.2 3.6-12.3 0-5.1-1.2-9.2-3.6-12.4-2.4-3.2-5.5-4.8-9.1-4.8z"/></svg>